# xmcd CD database file
#
# Track frame offsets:
#	150
#	30640
#	64006
#	88552
#	112963
#	134812
#	154645
#	174079
#	190349
#	212891
#	241067
#	264799
#	288938
#	311969
#	329413
#
# Disc length: 4714 seconds
#
# Revision: 0
# Processed by: cddbd v1.5.2PL0 Copyright (c) Steve Scherf et al.
# Submitted via: CDex 1.70beta2
#
DISCID=cf12680f
DTITLE=Dave Brubeck - Time Out
DYEAR=1900
DGENRE=Jazz
TTITLE0=Blue Rondo a la Turk
TTITLE1=Stange Meadow Lark
TTITLE2=Take Five
TTITLE3=Three to get ready
TTITLE4=Kathy's Waltz
TTITLE5=Everybody's Jumpin'
TTITLE6=Pick up sticks
TTITLE7=Audrey
TTITLE8=Jeepers Creepers
TTITLE9=Pennies from heaven
TTITLE10=Why do I love You
TTITLE11=Stompin' for Mili
TTITLE12=Keepin' out of mischief now
TTITLE13=A fine romance
TTITLE14=Brother, can you spare a dime
EXTD=
EXTT0=
EXTT1=
EXTT2=
EXTT3=
EXTT4=
EXTT5=
EXTT6=
EXTT7=
EXTT8=
EXTT9=
EXTT10=
EXTT11=
EXTT12=
EXTT13=
EXTT14=
PLAYORDER=
